<svg xmlns="http://www.w3.org/2000/svg" viewBox="0 0 16 16"><path d="M8 0C3.6 0 0 3.4 0 7.6c0 4.2 3.6 7.6 8 7.6s8-3.4 8-7.6C16 3.4 12.4 0 8 0zM6.2 3.6h3.6c.5 0 .8.1 1 .2.3.1.5.2.8.5.2.2.3.4.4.7.1.3.2.6.2 1v3.4c0 .4-.1.7-.2 1-.1.3-.3.5-.5.7-.2.2-.5.4-.8.5-.3.1-.6.2-1 .2H6.1c-.5 0-.8-.1-1-.2-.3-.1-.5-.2-.8-.5-.2-.2-.4-.5-.5-.7-.1-.3-.2-.6-.2-1V6c0-.4.1-.7.2-1 .1-.3.3-.5.5-.7.4-.3.6-.4.9-.5.3-.1.6-.2 1-.2zm1.4.7h2c.4 0 .6.1.8.1.2.1.3.2.5.3.1.1.2.3.3.5.1.1.1.4.1.8v3.2c0 .4-.1.6-.1.8-.1.2-.2.3-.3.5-.1.1-.3.2-.5.3-.2.1-.4.1-.8.1H6.2c-.4 0-.6-.1-.8-.1-.2-.1-.3-.2-.5-.3-.1-.1-.2-.3-.3-.5 0-.1-.1-.3-.1-.7V6.1c0-.4.1-.6.1-.8.1-.3.2-.4.4-.5.1-.1.3-.2.5-.3.2-.1.4-.1.8-.1.4-.1.5-.1 1.3-.1zm2.7.7c-.3 0-.5.2-.5.4 0 .3.2.5.5.5s.5-.2.5-.5-.2-.4-.5-.4zM5.8 7.6c0-1.2 1-2.1 2.2-2.1 1.2 0 2.2.9 2.2 2.1S9.2 9.7 8 9.7s-2.2-.9-2.2-2.1zM8 6.3c.8 0 1.4.6 1.4 1.4C9.4 8.4 8.8 9 8 9c-.8 0-1.4-.6-1.4-1.4 0-.7.6-1.3 1.4-1.3z" fill-rule="evenodd" clip-rule="evenodd" fill="#4f4f4f"/></svg>